<svg width="37" height="40" viewBox="0 0 37 40" fill="none" xmlns="http://www.w3.org/2000/svg">
<rect x="3.6665" y="22.6666" width="3.66667" height="16.5" fill="#CF8D4F"/>
<rect x="3.6665" y="35.5" width="7.33333" height="3.66667" fill="#5F5F5F"/>
<rect x="11" y="35.5" width="3.66667" height="3.66667" fill="#4C4B4B"/>
<rect x="26" y="23" width="3.66667" height="16.5" fill="#CF8D4F"/>
<rect x="26" y="35.8334" width="7.33333" height="3.66667" fill="#5F5F5F"/>
<rect x="33.3335" y="35.8334" width="3.66667" height="3.66667" fill="#4C4B4B"/>
<rect x="33" width="4" height="33" transform="rotate(90 33 0)" fill="#CF8D4F"/>
<rect x="33" y="4.09998" width="4" height="33" transform="rotate(90 33 4.09998)" fill="#CF8D4F"/>
<rect x="33" y="8.20001" width="4" height="33" transform="rotate(90 33 8.20001)" fill="#CF8D4F"/>
<rect x="33" y="12.3" width="3" height="33" transform="rotate(90 33 12.3)" fill="#CF8D4F"/>
<rect x="33" y="15.4" width="4" height="33" transform="rotate(90 33 15.4)" fill="#CF8D4F"/>
<rect x="33" y="19.5" width="4" height="33" transform="rotate(90 33 19.5)" fill="#CF8D4F"/>
<rect x="12" y="11.5" width="8" height="2" fill="#504848"/>
<rect x="12" y="13.6" width="8" height="2" fill="#504848"/>
<rect x="12" y="15.7" width="8" height="2" fill="#504848"/>
<rect x="12" y="10" width="2" height="10" fill="#504848"/>
<rect x="14.1001" y="10" width="2" height="10" fill="#504848"/>
<rect x="16.2002" y="10" width="2" height="10" fill="#504848"/>
<rect x="18.2998" y="10" width="2" height="10" fill="#504848"/>
<rect y="19" width="33" height="1" fill="#D9D9D9"/>
<rect width="33" height="1" fill="#D70000"/>
</svg>
