<svg width="33" height="24" viewBox="0 0 33 24" fill="none" xmlns="http://www.w3.org/2000/svg">
<rect x="33" width="4" height="33" transform="rotate(90 33 0)" fill="#413939"/>
<rect x="33" y="4.09998" width="4" height="33" transform="rotate(90 33 4.09998)" fill="#413939"/>
<rect x="33" y="8.20001" width="4" height="33" transform="rotate(90 33 8.20001)" fill="#413939"/>
<rect x="33" y="12.3" width="3" height="33" transform="rotate(90 33 12.3)" fill="#413939"/>
<rect x="33" y="15.4" width="4" height="33" transform="rotate(90 33 15.4)" fill="#413939"/>
<rect x="33" y="19.5" width="4" height="33" transform="rotate(90 33 19.5)" fill="#413939"/>
<rect width="33" height="1" fill="#D70000"/>
<rect x="3.25" y="7.25" width="9.44355" height="8.5" fill="#C4FFED" stroke="#6B3F3F" stroke-width="0.5"/>
<rect x="7.79053" y="7.36292" width="0.362903" height="8.27419" fill="#6B3F3F"/>
<rect x="3.36279" y="11.6453" width="0.362903" height="9.21774" transform="rotate(-90 3.36279 11.6453)" fill="#6B3F3F"/>
<rect x="20.25" y="7.25" width="9.44355" height="8.5" fill="#C4FFED" stroke="#6B3F3F" stroke-width="0.5"/>
<rect x="24.7905" y="7.36292" width="0.362903" height="8.27419" fill="#6B3F3F"/>
<rect x="20.3628" y="11.6453" width="0.362903" height="9.21774" transform="rotate(-90 20.3628 11.6453)" fill="#6B3F3F"/>
</svg>
