<svg width="41" height="35" viewBox="0 0 41 35" fill="none" xmlns="http://www.w3.org/2000/svg">
<rect width="4.71429" height="4" transform="matrix(-1 0 0 1 22.8853 6.49768)" fill="#413939"/>
<rect width="10.6071" height="4" transform="matrix(-1 0 0 1 25.832 10.7477)" fill="#413939"/>
<rect width="16.5" height="3" transform="matrix(-1 0 0 1 28.7783 14.9977)" fill="#413939"/>
<rect width="21.2143" height="4" transform="matrix(-1 0 0 1 31.1353 18.2477)" fill="#413939"/>
<rect width="27.1071" height="5" transform="matrix(-1 0 0 1 34.082 22.4977)" fill="#413939"/>
<rect width="33" height="4" transform="matrix(-1 0 0 1 37.0283 27.7477)" fill="#413939"/>
<rect width="38" height="4" transform="matrix(-0.520292 0.853989 0.853989 0.520292 19.771 0.000244141)" fill="#413939"/>
<rect width="38" height="4" transform="matrix(-0.520265 -0.854005 -0.854005 0.520265 40.2144 32.4522)" fill="#413939"/>
</svg>
