<svg width="465" height="466" viewBox="0 0 465 466" fill="none" xmlns="http://www.w3.org/2000/svg">
<rect x="53" y="257" width="39" height="209" fill="#CF8D4F"/>
<rect x="53" y="426.57" width="58" height="39.43" fill="#3B2A1A"/>
<rect x="110" y="426.566" width="46" height="39.434" fill="#383838"/>
<rect x="362" y="257" width="39" height="209" fill="#CF8D4F"/>
<rect x="362" y="426.57" width="58" height="39.43" fill="#3B2A1A"/>
<rect x="419" y="426.566" width="46" height="39.434" fill="#383838"/>
<rect width="454" height="32" fill="#CF8D4F"/>
<rect y="32.25" width="454" height="32" fill="#CF8D4F"/>
<rect y="64.5" width="454" height="32" fill="#CF8D4F"/>
<rect y="96.75" width="454" height="32" fill="#CF8D4F"/>
<rect y="129" width="454" height="32" fill="#CF8D4F"/>
<rect y="161.25" width="454" height="32" fill="#CF8D4F"/>
<rect y="193.5" width="454" height="32" fill="#CF8D4F"/>
<rect y="225.75" width="454" height="32" fill="#CF8D4F"/>
<rect y="225" width="454" height="7" fill="#D9D9D9"/>
<rect width="454" height="7" fill="#D70000"/>
<rect x="178" y="62" width="101" height="162" fill="#2F2F30"/>
<rect x="176" y="62" width="25" height="162" fill="#504848"/>
<rect x="202" y="62" width="25" height="162" fill="#504848"/>
<rect x="228" y="62" width="25" height="162" fill="#504848"/>
<rect x="254" y="62" width="25" height="162" fill="#504848"/>
<rect x="174" y="177" width="107" height="23" fill="#504848"/>
<rect x="174" y="133" width="107" height="23" fill="#504848"/>
<rect x="174" y="93" width="107" height="23" fill="#504848"/>
</svg>
