<svg width="1000" height="1441" viewBox="0 0 1000 1441" fill="none" xmlns="http://www.w3.org/2000/svg">
<path d="M261.25 67.5C267.083 68.1667 272 68.6667 276 69C280 69.1667 283.167 69.3333 285.5 69.5C288.333 69.6667 290.583 69.75 292.25 69.75C295.083 69.75 298.333 69.6667 302 69.5C305.167 69.3333 308.833 69.0833 313 68.75C317.333 68.25 322 67.5 327 66.5C324.667 69 322.75 71.4167 321.25 73.75C319.75 75.9167 318.583 77.9167 317.75 79.75C316.75 81.75 315.917 83.5833 315.25 85.25C314.583 87.4167 313.833 90.75 313 95.25C312.167 99.0833 311.25 104.5 310.25 111.5C309.417 118.5 308.333 127.667 307 139C312.667 139.167 317.583 139.25 321.75 139.25C325.917 139.083 329.417 139 332.25 139H340.5C342.833 138.833 345.5 138.667 348.5 138.5C353.5 138.333 361.083 137.833 371.25 137C372.083 129.333 372.5 122.75 372.5 117.25C372.667 111.583 372.583 106.833 372.25 103C371.917 98.6667 371.417 95 370.75 92C370.25 90.3333 369.5 88.3333 368.5 86C367.667 84 366.5 81.5833 365 78.75C363.667 75.75 361.833 72.1667 359.5 68C363.833 68.6667 367.667 69.1667 371 69.5C374.5 69.6667 377.417 69.8333 379.75 70C382.417 70.1667 384.667 70.25 386.5 70.25C388.333 70.25 390.75 70.1667 393.75 70C396.25 69.8333 399.333 69.75 403 69.75C406.667 69.5833 411.167 69.3333 416.5 69C415.167 71.3333 414 73.75 413 76.25C412 78.75 411.167 81 410.5 83C409.833 85.3333 409.167 87.6667 408.5 90C407.667 93.5 406.917 98.5833 406.25 105.25C405.75 111.917 405.25 119.333 404.75 127.5C404.417 135.667 404.083 144.167 403.75 153C403.583 161.833 403.417 170.167 403.25 178C403.25 185.833 403.333 192.833 403.5 199C403.667 205 404 209.25 404.5 211.75C405 214.75 405.833 217.833 407 221C408 223.833 409.333 226.917 411 230.25C412.667 233.417 414.833 236.417 417.5 239.25L357.25 243.75C359.75 241.417 361.75 239.167 363.25 237C364.75 234.667 365.917 232.667 366.75 231C367.583 229.167 368.167 227.417 368.5 225.75C368.667 223.75 368.917 220.25 369.25 215.25C369.583 211.083 369.917 205.167 370.25 197.5C370.583 189.833 370.917 179.667 371.25 167C368.917 167 366.083 167.083 362.75 167.25C359.583 167.25 356.583 167.333 353.75 167.5C350.417 167.667 346.917 167.75 343.25 167.75C339.583 167.917 335.75 168.083 331.75 168.25C328.417 168.583 324.667 168.917 320.5 169.25C316.5 169.417 312.5 169.667 308.5 170C308.167 177 308.167 183.167 308.5 188.5C308.833 193.667 309.333 198.083 310 201.75C310.667 206.083 311.5 209.833 312.5 213C313.5 216 314.583 219 315.75 222C316.75 224.667 317.917 227.5 319.25 230.5C320.75 233.5 322.25 236.167 323.75 238.5C320.583 238.167 317.667 237.917 315 237.75C312.333 237.417 310 237.083 308 236.75C305.667 236.583 303.417 236.417 301.25 236.25C299.083 236.25 296.5 236.167 293.5 236C290.833 235.833 287.5 235.75 283.5 235.75C279.5 235.583 274.833 235.5 269.5 235.5C272.667 232.333 275.167 229.25 277 226.25C279 223.083 280.417 220.25 281.25 217.75C282.25 214.75 282.917 212 283.25 209.5C283.417 207.333 283.5 203.25 283.5 197.25C283.667 191.25 283.667 184.417 283.5 176.75C283.5 168.917 283.417 160.75 283.25 152.25C283.083 143.583 282.833 135.5 282.5 128C282.333 120.5 282.083 114.083 281.75 108.75C281.583 103.25 281.417 99.8333 281.25 98.5C280.417 95.5 279.167 92.25 277.5 88.75C276 85.9167 274 82.6667 271.5 79C269 75.1667 265.583 71.3333 261.25 67.5ZM420 69.25C425 70.25 429.25 71 432.75 71.5C436.25 72 439.167 72.4167 441.5 72.75C444.167 73.0833 446.417 73.25 448.25 73.25C450.083 73.25 452.583 73.1667 455.75 73C458.583 72.8333 462.167 72.75 466.5 72.75C470.833 72.5833 476.333 72.3333 483 72C479.167 74.6667 476.083 76.9167 473.75 78.75C471.417 80.5833 469.667 82.1667 468.5 83.5C467 85 466.083 86.25 465.75 87.25C465.417 87.9167 465.083 90.4167 464.75 94.75C464.417 98.9167 464.083 104.25 463.75 110.75C463.583 117.083 463.583 124.25 463.75 132.25C463.917 140.083 464.333 148.083 465 156.25C465.833 164.417 467 172.333 468.5 180C470 187.5 472 194.083 474.5 199.75C477.167 205.417 480.333 209.833 484 213C487.833 216.167 492.417 217.333 497.75 216.5C504.75 215.5 510.417 212.083 514.75 206.25C519.083 200.417 522.333 193.333 524.5 185C526.833 176.667 528.25 167.75 528.75 158.25C529.417 148.583 529.5 139.583 529 131.25C528.667 122.75 528 115.417 527 109.25C526 103.083 525.083 99.25 524.25 97.75C523.25 96.0833 521.917 94.1667 520.25 92C518.917 90.1667 517.167 88.0833 515 85.75C512.833 83.25 510.333 80.5833 507.5 77.75C512.667 77.9167 517.333 78.0833 521.5 78.25C525.667 78.25 529.167 78.3333 532 78.5C535.333 78.6667 538.333 78.8333 541 79C543.667 79.1667 547 79.4167 551 79.75C554.333 80.0833 558.583 80.4167 563.75 80.75C569.083 81.0833 575.417 81.5833 582.75 82.25C579.917 82.9167 577.583 83.8333 575.75 85C574.083 86.1667 572.75 87.4167 571.75 88.75C570.583 90.25 569.75 91.75 569.25 93.25C568.75 94.5833 568.333 98.5833 568 105.25C567.833 111.75 567.5 119.667 567 129C566.667 138.167 566.083 148.167 565.25 159C564.417 169.667 563.083 179.833 561.25 189.5C559.583 199.167 557.333 207.75 554.5 215.25C551.833 222.75 548.333 227.917 544 230.75C537.667 234.917 531 237.917 524 239.75C517 241.417 509.917 242.333 502.75 242.5C495.583 242.5 488.5 241.917 481.5 240.75C474.667 239.417 468.083 237.833 461.75 236C455.25 234 449.833 229.5 445.5 222.5C441.333 215.5 438 207.25 435.5 197.75C433.167 188.083 431.417 177.75 430.25 166.75C429.25 155.583 428.583 144.833 428.25 134.5C428.083 124.167 428.083 114.833 428.25 106.5C428.583 98 428.833 91.5833 429 87.25C429 85.0833 428.667 83 428 81C427.5 79.1667 426.583 77.25 425.25 75.25C424.083 73.0833 422.333 71.0833 420 69.25ZM573.75 62.5C584.917 63.8333 594.583 64.8333 602.75 65.5C610.917 66 617.667 66.4167 623 66.75C629.167 67.0833 634.333 67.1667 638.5 67C642.833 66.8333 648.75 66.4167 656.25 65.75C662.583 65.25 670.917 64.5833 681.25 63.75C691.583 62.75 704.5 61.4167 720 59.75C720.167 63.5833 720.25 67.3333 720.25 71C720.417 74.5 720.583 77.5833 720.75 80.25C720.917 83.4167 721 86.3333 721 89C721 91.8333 720.833 95.4167 720.5 99.75C720.167 103.417 719.583 108.083 718.75 113.75C718.083 119.25 717 125.833 715.5 133.5C713.167 124.5 710.917 117.25 708.75 111.75C706.583 106.083 704.583 101.583 702.75 98.25C700.75 94.4167 698.75 91.5 696.75 89.5C694.583 88 692 86.75 689 85.75C686.333 84.9167 682.917 84.25 678.75 83.75C674.75 83.25 670 83.3333 664.5 84C663.667 106 663.083 123.833 662.75 137.5C662.417 151.167 662.167 161.833 662 169.5C661.833 178.667 661.75 185.25 661.75 189.25C661.917 194.917 662.833 200.5 664.5 206C665.833 210.667 668 215.5 671 220.5C674 225.5 678.333 229.917 684 233.75H653.5C650.667 233.75 647.167 233.917 643 234.25C639.5 234.583 635 234.917 629.5 235.25C624.167 235.583 617.917 236.167 610.75 237C613.25 232.667 615.25 228.75 616.75 225.25C618.25 221.75 619.417 218.75 620.25 216.25C621.25 213.25 622 210.583 622.5 208.25C622.667 204.917 623.083 198.167 623.75 188C623.917 183.833 624.083 178.667 624.25 172.5C624.583 166.333 624.917 159 625.25 150.5C625.75 142 626.167 132.25 626.5 121.25C627 110.083 627.5 97.5 628 83.5C625 82.6667 622.167 82.75 619.5 83.75C616.833 84.5833 614.5 85.6667 612.5 87C610.167 88.6667 607.917 90.6667 605.75 93C603.583 95.8333 601.167 99.5 598.5 104C596.167 107.833 593.5 112.917 590.5 119.25C587.5 125.417 584.083 133.083 580.25 142.25C579.417 132.583 578.833 124.667 578.5 118.5C578.167 112.167 577.917 107.25 577.75 103.75C577.583 99.5833 577.5 96.5 577.5 94.5C577.5 92.6667 577.333 90.25 577 87.25C576.667 84.75 576.25 81.5 575.75 77.5C575.25 73.3333 574.583 68.3333 573.75 62.5Z" fill="#413939"/>
<rect x="1.5" y="642.5" width="997" height="797" stroke="black" stroke-width="3"/>
<rect x="15" y="906" width="73.9245" height="204" stroke="black" stroke-width="2"/>
<rect x="25" y="916" width="53.9245" height="50" fill="#EFEDED" stroke="black" stroke-width="2"/>
<g filter="url(#filter0_i_46_365)">
<rect x="24" y="982" width="55.9245" height="52" fill="#EFEDED"/>
</g>
<rect x="25" y="983" width="53.9245" height="50" stroke="black" stroke-width="2"/>
<rect x="25" y="1050" width="53.9245" height="50" fill="#EFEDED" stroke="black" stroke-width="2"/>
<rect x="38.6667" y="1078.67" width="3.66667" height="16.5" fill="#CF8D4F"/>
<rect x="38.6699" y="1093" width="5" height="3" fill="#5F5F5F"/>
<rect x="43.6699" y="1093" width="3" height="3" fill="#4C4B4B"/>
<rect x="61.0002" y="1079" width="3.66667" height="16.5" fill="#CF8D4F"/>
<rect x="61" y="1093" width="5" height="3" fill="#5F5F5F"/>
<rect x="66" y="1093" width="3" height="3" fill="#4C4B4B"/>
<rect x="68" y="1056" width="4" height="33" transform="rotate(90 68 1056)" fill="#CF8D4F"/>
<rect x="68" y="1060.1" width="4" height="33" transform="rotate(90 68 1060.1)" fill="#CF8D4F"/>
<rect x="68" y="1064.2" width="4" height="33" transform="rotate(90 68 1064.2)" fill="#CF8D4F"/>
<rect x="68" y="1068.3" width="3" height="33" transform="rotate(90 68 1068.3)" fill="#CF8D4F"/>
<rect x="68" y="1071.4" width="4" height="33" transform="rotate(90 68 1071.4)" fill="#CF8D4F"/>
<rect x="68" y="1075.5" width="4" height="33" transform="rotate(90 68 1075.5)" fill="#CF8D4F"/>
<rect x="47" y="1067.5" width="8" height="2" fill="#504848"/>
<rect x="47" y="1069.6" width="8" height="2" fill="#504848"/>
<rect x="47" y="1071.7" width="8" height="2" fill="#504848"/>
<rect x="47" y="1066" width="2" height="10" fill="#504848"/>
<rect x="49.1001" y="1066" width="2" height="10" fill="#504848"/>
<rect x="51.2" y="1066" width="2" height="10" fill="#504848"/>
<rect x="53.3" y="1066" width="2" height="10" fill="#504848"/>
<rect x="35" y="1075" width="33" height="1" fill="#D9D9D9"/>
<rect x="35" y="1056" width="33" height="1" fill="#D70000"/>
<rect x="68" y="995" width="4" height="33" transform="rotate(90 68 995)" fill="#413939"/>
<rect x="68" y="999.1" width="4" height="33" transform="rotate(90 68 999.1)" fill="#413939"/>
<rect x="68" y="1003.2" width="4" height="33" transform="rotate(90 68 1003.2)" fill="#413939"/>
<rect x="68" y="1007.3" width="3" height="33" transform="rotate(90 68 1007.3)" fill="#413939"/>
<rect x="68" y="1010.4" width="4" height="33" transform="rotate(90 68 1010.4)" fill="#413939"/>
<rect x="68" y="1014.5" width="4" height="33" transform="rotate(90 68 1014.5)" fill="#413939"/>
<rect x="35" y="995" width="33" height="1" fill="#D70000"/>
<rect x="38.25" y="1002.25" width="9.44355" height="8.5" fill="#C4FFED" stroke="#6B3F3F" stroke-width="0.5"/>
<rect x="42.7905" y="1002.36" width="0.362903" height="8.27419" fill="#6B3F3F"/>
<rect x="38.363" y="1006.65" width="0.362903" height="9.21774" transform="rotate(-90 38.363 1006.65)" fill="#6B3F3F"/>
<rect x="55.25" y="1002.25" width="9.44355" height="8.5" fill="#C4FFED" stroke="#6B3F3F" stroke-width="0.5"/>
<rect x="59.7905" y="1002.36" width="0.362903" height="8.27419" fill="#6B3F3F"/>
<rect x="55.363" y="1006.65" width="0.362903" height="9.21774" transform="rotate(-90 55.363 1006.65)" fill="#6B3F3F"/>
<rect width="4.71429" height="4" transform="matrix(-1 0 0 1 53.8853 928.498)" fill="#413939"/>
<rect width="10.6071" height="4" transform="matrix(-1 0 0 1 56.8318 932.748)" fill="#413939"/>
<rect width="16.5" height="3" transform="matrix(-1 0 0 1 59.7783 936.998)" fill="#413939"/>
<rect width="21.2143" height="4" transform="matrix(-1 0 0 1 62.1353 940.248)" fill="#413939"/>
<rect width="27.1071" height="5" transform="matrix(-1 0 0 1 65.0818 944.498)" fill="#413939"/>
<rect width="33" height="4" transform="matrix(-1 0 0 1 68.0283 949.748)" fill="#413939"/>
<rect width="38" height="4" transform="matrix(-0.520292 0.853989 0.853989 0.520292 50.771 922)" fill="#413939"/>
<rect width="38" height="4" transform="matrix(-0.520265 -0.854005 -0.854005 0.520265 71.2144 954.452)" fill="#413939"/>
<g style="mix-blend-mode:luminosity">
<path d="M73.9645 1086.09V1097H72.6435V1087.48H72.5795L69.9162 1089.24V1087.9L72.6435 1086.09H73.9645Z" fill="#101010"/>
</g>
<path d="M69.9034 1030V1029.23L72.7841 1026.08C73.1222 1025.71 73.4006 1025.39 73.6193 1025.12C73.8381 1024.84 74 1024.58 74.1051 1024.34C74.2131 1024.1 74.267 1023.84 74.267 1023.57C74.267 1023.27 74.1932 1023 74.0455 1022.78C73.9006 1022.55 73.7017 1022.38 73.4489 1022.26C73.196 1022.13 72.9119 1022.07 72.5966 1022.07C72.2614 1022.07 71.9688 1022.14 71.7188 1022.28C71.4716 1022.42 71.2798 1022.61 71.1435 1022.86C71.0099 1023.11 70.9432 1023.39 70.9432 1023.73H69.9375C69.9375 1023.22 70.0554 1022.77 70.2912 1022.38C70.527 1021.99 70.848 1021.69 71.2543 1021.48C71.6634 1021.26 72.1222 1021.15 72.6307 1021.15C73.142 1021.15 73.5952 1021.26 73.9901 1021.48C74.3849 1021.69 74.6946 1021.98 74.919 1022.35C75.1435 1022.72 75.2557 1023.12 75.2557 1023.57C75.2557 1023.89 75.1974 1024.21 75.081 1024.52C74.9673 1024.82 74.7685 1025.16 74.4844 1025.53C74.2031 1025.91 73.8125 1026.36 73.3125 1026.9L71.3523 1028.99V1029.06H75.4091V1030H69.9034Z" fill="#101010"/>
<path d="M72.8523 963.119C72.2898 963.119 71.7884 963.023 71.348 962.83C70.9105 962.636 70.5625 962.368 70.304 962.024C70.0483 961.678 69.9091 961.276 69.8864 960.818H70.9602C70.983 961.099 71.0795 961.342 71.25 961.547C71.4205 961.749 71.6435 961.905 71.919 962.016C72.1946 962.126 72.5 962.182 72.8352 962.182C73.2102 962.182 73.5426 962.116 73.8324 961.986C74.1222 961.855 74.3494 961.673 74.5142 961.44C74.679 961.207 74.7614 960.938 74.7614 960.631C74.7614 960.31 74.6818 960.027 74.5227 959.783C74.3636 959.536 74.1307 959.342 73.8239 959.203C73.517 959.064 73.142 958.994 72.6989 958.994H72V958.057H72.6989C73.0455 958.057 73.3494 957.994 73.6108 957.869C73.875 957.744 74.081 957.568 74.2287 957.341C74.3793 957.114 74.4545 956.847 74.4545 956.54C74.4545 956.244 74.3892 955.987 74.2585 955.768C74.1278 955.55 73.9432 955.379 73.7045 955.257C73.4688 955.135 73.1903 955.074 72.8693 955.074C72.5682 955.074 72.2841 955.129 72.017 955.24C71.7528 955.348 71.5369 955.506 71.3693 955.713C71.2017 955.918 71.1108 956.165 71.0966 956.455H70.0739C70.0909 955.997 70.2287 955.597 70.4872 955.253C70.7457 954.906 71.0838 954.636 71.5014 954.443C71.9219 954.25 72.3835 954.153 72.8864 954.153C73.4261 954.153 73.8892 954.263 74.2756 954.482C74.6619 954.697 74.9588 954.983 75.1662 955.338C75.3736 955.693 75.4773 956.077 75.4773 956.489C75.4773 956.98 75.348 957.399 75.0895 957.746C74.8338 958.092 74.4858 958.332 74.0455 958.466V958.534C74.5966 958.625 75.027 958.859 75.3366 959.237C75.6463 959.612 75.8011 960.077 75.8011 960.631C75.8011 961.105 75.6719 961.531 75.4134 961.909C75.1577 962.284 74.8082 962.58 74.3651 962.795C73.9219 963.011 73.4176 963.119 72.8523 963.119Z" fill="#101010"/>
<rect x="26" y="1051" width="52" height="48" fill="#D9D9D9" fill-opacity="0.9"/>
<rect x="26" y="984" width="52" height="48" fill="#D9D9D9" fill-opacity="0.9"/>
<rect x="26" y="917" width="52" height="48" fill="#D9D9D9" fill-opacity="0.9"/>
<circle cx="25" cy="1050" r="5.5" fill="#EBEBEB" stroke="black"/>
<path d="M24.9375 1054.11C24.349 1054.11 23.8477 1053.95 23.4336 1053.63C23.0195 1053.31 22.7031 1052.84 22.4844 1052.23C22.2656 1051.61 22.1563 1050.87 22.1563 1050C22.1563 1049.14 22.2656 1048.4 22.4844 1047.79C22.7057 1047.17 23.0234 1046.7 23.4375 1046.38C23.8542 1046.05 24.3542 1045.89 24.9375 1045.89C25.5208 1045.89 26.0195 1046.05 26.4336 1046.38C26.8503 1046.7 27.168 1047.17 27.3867 1047.79C27.6081 1048.4 27.7188 1049.14 27.7188 1050C27.7188 1050.87 27.6094 1051.61 27.3906 1052.23C27.1719 1052.84 26.8555 1053.31 26.4414 1053.63C26.0273 1053.95 25.526 1054.11 24.9375 1054.11ZM24.9375 1053.25C25.5208 1053.25 25.974 1052.97 26.2969 1052.41C26.6198 1051.84 26.7813 1051.04 26.7813 1050C26.7813 1049.31 26.707 1048.72 26.5586 1048.23C26.4128 1047.74 26.2018 1047.37 25.9258 1047.12C25.6523 1046.86 25.3229 1046.73 24.9375 1046.73C24.3594 1046.73 23.9076 1047.02 23.582 1047.59C23.2565 1048.16 23.0938 1048.96 23.0938 1050C23.0938 1050.69 23.1667 1051.28 23.3125 1051.77C23.4583 1052.25 23.668 1052.62 23.9414 1052.87C24.2174 1053.12 24.5495 1053.25 24.9375 1053.25Z" fill="#101010"/>
<circle cx="25" cy="916" r="5.5" fill="#EBEBEB" stroke="black"/>
<path d="M24.9341 920.109C24.3455 920.109 23.8442 919.949 23.4302 919.629C23.0161 919.306 22.6997 918.839 22.481 918.227C22.2622 917.612 22.1528 916.87 22.1528 916C22.1528 915.135 22.2622 914.397 22.481 913.785C22.7023 913.171 23.02 912.702 23.4341 912.379C23.8507 912.053 24.3507 911.891 24.9341 911.891C25.5174 911.891 26.0161 912.053 26.4302 912.379C26.8468 912.702 27.1646 913.171 27.3833 913.785C27.6047 914.397 27.7153 915.135 27.7153 916C27.7153 916.87 27.606 917.612 27.3872 918.227C27.1685 918.839 26.8521 919.306 26.438 919.629C26.0239 919.949 25.5226 920.109 24.9341 920.109ZM24.9341 919.25C25.5174 919.25 25.9705 918.969 26.2935 918.406C26.6164 917.844 26.7778 917.042 26.7778 916C26.7778 915.307 26.7036 914.717 26.5552 914.23C26.4093 913.743 26.1984 913.372 25.9224 913.117C25.6489 912.862 25.3195 912.734 24.9341 912.734C24.356 912.734 23.9041 913.02 23.5786 913.59C23.2531 914.158 23.0903 914.961 23.0903 916C23.0903 916.693 23.1632 917.281 23.3091 917.766C23.4549 918.25 23.6646 918.618 23.938 918.871C24.214 919.124 24.5461 919.25 24.9341 919.25Z" fill="#101010"/>
<circle cx="25" cy="916" r="5.5" fill="#D9D9D9" fill-opacity="0.9" stroke="black"/>
<rect x="326.114" y="1229" width="39.0839" height="209" fill="#CF8D4F"/>
<rect x="326.114" y="1398.57" width="58.1247" height="39.43" fill="#3B2A1A"/>
<rect x="383.237" y="1398.57" width="46.0989" height="39.434" fill="#383838"/>
<rect x="635.779" y="1229" width="39.0839" height="209" fill="#CF8D4F"/>
<rect x="635.779" y="1398.57" width="58.1247" height="39.43" fill="#3B2A1A"/>
<rect x="692.901" y="1398.57" width="46.0989" height="39.434" fill="#383838"/>
<rect x="273" y="972" width="454.976" height="32" fill="#CF8D4F"/>
<rect x="273" y="1004.25" width="454.976" height="32" fill="#CF8D4F"/>
<rect x="273" y="1036.5" width="454.976" height="32" fill="#CF8D4F"/>
<rect x="273" y="1068.75" width="454.976" height="32" fill="#CF8D4F"/>
<rect x="273" y="1101" width="454.976" height="32" fill="#CF8D4F"/>
<rect x="273" y="1133.25" width="454.976" height="32" fill="#CF8D4F"/>
<rect x="273" y="1165.5" width="454.976" height="32" fill="#CF8D4F"/>
<rect x="273" y="1197.75" width="454.976" height="32" fill="#CF8D4F"/>
<rect x="273" y="1197" width="454.976" height="7" fill="#D9D9D9"/>
<rect x="273" y="972" width="454.976" height="7" fill="#D70000"/>
<rect x="451.383" y="1034" width="101.217" height="162" fill="#2F2F30"/>
<rect x="449.378" y="1034" width="25.0538" height="162" fill="#504848"/>
<rect x="475.434" y="1034" width="25.0538" height="162" fill="#504848"/>
<rect x="501.49" y="1034" width="25.0538" height="162" fill="#504848"/>
<rect x="527.546" y="1034" width="25.0538" height="162" fill="#504848"/>
<rect x="447.374" y="1149" width="107.23" height="23" fill="#504848"/>
<rect x="447.374" y="1105" width="107.23" height="23" fill="#504848"/>
<rect x="447.374" y="1065" width="107.23" height="23" fill="#504848"/>
<rect x="273" y="715" width="454" height="32" fill="#413939"/>
<rect x="273" y="747.25" width="454" height="32" fill="#413939"/>
<rect x="273" y="779.5" width="454" height="32" fill="#413939"/>
<rect x="273" y="811.75" width="454" height="32" fill="#413939"/>
<rect x="273" y="844" width="454" height="32" fill="#413939"/>
<rect x="273" y="876.25" width="454" height="32" fill="#413939"/>
<rect x="273" y="908.5" width="454" height="32" fill="#413939"/>
<rect x="273" y="940.75" width="454" height="32" fill="#413939"/>
<rect x="273" y="715" width="454" height="7" fill="#D70000"/>
<rect x="312.5" y="784.5" width="132" height="119" fill="#C4FFED" stroke="#6B3F3F" stroke-width="5"/>
<rect x="376" y="787" width="5" height="114" fill="#6B3F3F"/>
<rect x="315" y="846" width="4.99999" height="127" transform="rotate(-90 315 846)" fill="#6B3F3F"/>
<rect x="554.5" y="784.5" width="132" height="119" fill="#C4FFED" stroke="#6B3F3F" stroke-width="5"/>
<rect x="618" y="787" width="5" height="114" fill="#6B3F3F"/>
<rect x="557" y="846" width="4.99999" height="127" transform="rotate(-90 557 846)" fill="#6B3F3F"/>
<rect x="273" y="457" width="454" height="32" fill="#413939"/>
<rect x="273" y="489.25" width="454" height="32" fill="#413939"/>
<rect x="273" y="521.5" width="454" height="32" fill="#413939"/>
<rect x="273" y="553.75" width="454" height="32" fill="#413939"/>
<rect x="273" y="586" width="454" height="32" fill="#413939"/>
<rect x="273" y="618.25" width="454" height="32" fill="#413939"/>
<rect x="273" y="650.5" width="454" height="32" fill="#413939"/>
<rect x="273" y="682.75" width="454" height="32" fill="#413939"/>
<rect x="273" y="457" width="454" height="7" fill="#D70000"/>
<rect x="312.5" y="526.5" width="132" height="119" fill="#C4FFED" stroke="#6B3F3F" stroke-width="5"/>
<rect x="376" y="529" width="5" height="114" fill="#6B3F3F"/>
<rect x="315" y="588" width="4.99999" height="127" transform="rotate(-90 315 588)" fill="#6B3F3F"/>
<rect x="554.5" y="526.5" width="132" height="119" fill="#C4FFED" stroke="#6B3F3F" stroke-width="5"/>
<rect x="618" y="529" width="5" height="114" fill="#6B3F3F"/>
<rect x="557" y="588" width="4.99999" height="127" transform="rotate(-90 557 588)" fill="#6B3F3F"/>
<rect x="468" y="264" width="64" height="32" fill="#413939"/>
<rect x="427" y="296.25" width="146" height="32" fill="#413939"/>
<rect x="389" y="328.5" width="222" height="32" fill="#413939"/>
<rect x="349" y="360.75" width="302" height="32" fill="#413939"/>
<rect x="313" y="393" width="374" height="32" fill="#413939"/>
<rect x="273" y="425.25" width="454" height="32" fill="#413939"/>
<rect x="184.017" y="499.877" width="454" height="32" transform="rotate(-40.5046 184.017 499.877)" fill="#413939"/>
<rect x="467.782" y="205" width="454" height="32" transform="rotate(40.5 467.782 205)" fill="#413939"/>
<defs>
<filter id="filter0_i_46_365" x="24" y="982" width="55.9246" height="52" filterUnits="userSpaceOnUse" color-interpolation-filters="sRGB">
<feFlood flood-opacity="0" result="BackgroundImageFix"/>
<feBlend mode="normal" in="SourceGraphic" in2="BackgroundImageFix" result="shape"/>
<feColorMatrix in="SourceAlpha" type="matrix" values="0 0 0 0 0 0 0 0 0 0 0 0 0 0 0 0 0 0 127 0" result="hardAlpha"/>
<feMorphology radius="3" operator="erode" in="SourceAlpha" result="effect1_innerShadow_46_365"/>
<feOffset/>
<feComposite in2="hardAlpha" operator="arithmetic" k2="-1" k3="1"/>
<feColorMatrix type="matrix" values="0 0 0 0 0 0 0 0 0 0.41323 0 0 0 0 0.117082 0 0 0 1 0"/>
<feBlend mode="normal" in2="shape" result="effect1_innerShadow_46_365"/>
</filter>
</defs>
</svg>
